<?xml version="1.0" encoding="utf-8"?>
<!-- Generator: Adobe Illustrator 21.1.0, SVG Export Plug-In . SVG Version: 6.00 Build 0)  -->
<svg version="1.1" id="Calque_1" xmlns="http://www.w3.org/2000/svg" xmlns:xlink="http://www.w3.org/1999/xlink" x="0px" y="0px"
	 viewBox="0 0 90 112.5" style="enable-background:new 0 0 90 112.5;" xml:space="preserve">
<g>
	<path d="M22.5,32.7c4.2-8,12.6-13.5,22.3-13.5s18.1,5.5,22.3,13.5h17.3V19.2c0-7.5-6.1-13.5-13.5-13.5H26.6v17.2h-1.8V5.7h-0.6
		v17.2h-1.8V5.7h-0.6v17.2h-1.8V5.7h-0.6v17.2h-1.8V5.8C10.7,6.7,5.7,12.3,5.7,19.2v13.5H22.5z M64.1,14.1c0-1.6,1.3-2.9,2.9-2.9
		h6.5c1.6,0,2.9,1.3,2.9,2.9v6.5c0,1.6-1.3,2.9-2.9,2.9H67c-1.6,0-2.9-1.3-2.9-2.9V14.1z"/>
	<path d="M68.6,36.4c0.8,2.5,1.3,5.2,1.3,8c0,13.9-11.3,25.2-25.2,25.2S19.6,58.3,19.6,44.4c0-2.8,0.5-5.5,1.3-8H5.7v34.4
		c0,7.5,6.1,13.5,13.5,13.5h51.6c7.5,0,13.5-6.1,13.5-13.5V36.4H68.6z"/>
	<circle cx="44.8" cy="44.4" r="16.8"/>
</g>
</svg>
