<?xml version="1.0" encoding="utf-8"?>
<!-- Generator: Adobe Illustrator 21.1.0, SVG Export Plug-In . SVG Version: 6.00 Build 0)  -->
<svg version="1.1" id="Calque_1" xmlns="http://www.w3.org/2000/svg" xmlns:xlink="http://www.w3.org/1999/xlink" x="0px" y="0px"
	 viewBox="0 0 30 37.5" style="enable-background:new 0 0 30 37.5;" xml:space="preserve">
<g transform="translate(-450 -200)">
	<g>
		<path d="M454,224h8.7h1.8l-5.2-4c-0.2,0.3-0.3,0.5-0.5,0.8c-0.7-0.8-1.3-1.3-2-1.3c-1.7,0-2.4,3.3-4.7,4v0.6H454z"/>
		<path d="M479,215l-15.9-12.2l-6.3,8.2l0,0l-0.8,1l0,0l-2.1,2.7l5.8,4.4l0,0l5.3,4.1l3.2,2.4l0.4,0.3l0,0l1.2,0.9L479,215z
			 M463.3,204.2l14.3,11l-7.6,9.9V211h-11.9L463.3,204.2z M455.4,214.5l2-2.5H469v13l-1.3-1h0.3v-2.3c-1.9-2.4-2.7-5.7-4.7-5.7
			c-1.3,0-2.2,1-3,2.3L455.4,214.5z"/>
		<polygon points="451,225 451,212 454.8,212 455.6,211 450,211 450,226 467.1,226 465.8,225 		"/>
	</g>
</g>
</svg>
